<svg width="25" height="26" viewBox="0 0 25 26" fill="none" xmlns="http://www.w3.org/2000/svg">
<path d="M12.5191 0.641846C19.3996 0.641846 24.9725 6.35569 24.9725 13.4102C24.9718 16.0855 24.1529 18.6933 22.631 20.8663C21.109 23.0395 18.9608 24.6685 16.4886 25.5242C15.8659 25.6519 15.6324 25.2529 15.6324 24.9177C15.6324 24.4868 15.648 23.1142 15.648 21.4064C15.648 20.2094 15.2588 19.4433 14.8074 19.0443C17.5782 18.7251 20.4892 17.6398 20.4892 12.7399C20.4892 11.3354 20.0067 10.2022 19.2128 9.30838C19.3373 8.98917 19.7732 7.68041 19.0882 5.92476C19.0882 5.92476 18.0453 5.57363 15.6635 7.23352C14.6673 6.94623 13.6087 6.80258 12.5502 6.80258C11.4917 6.80258 10.4331 6.94623 9.43685 7.23352C7.05514 5.58959 6.01217 5.92476 6.01217 5.92476C5.32723 7.68041 5.7631 8.98917 5.88763 9.30838C5.09373 10.2022 4.61116 11.3513 4.61116 12.7399C4.61116 17.6238 7.50657 18.7251 10.2775 19.0443C9.91942 19.3635 9.59252 19.9221 9.48355 20.7521C8.76748 21.0872 6.97731 21.6299 5.8565 19.6987C5.623 19.3156 4.9225 18.3739 3.94179 18.3899C2.89882 18.4059 3.52149 18.9964 3.95736 19.2358C4.48663 19.5391 5.09373 20.6722 5.23383 21.0393C5.4829 21.7576 6.29237 23.1302 9.42128 22.5396C9.42128 23.609 9.43685 24.6145 9.43685 24.9177C9.43685 25.2529 9.20335 25.636 8.58068 25.5242C6.10034 24.6777 3.94294 23.052 2.41452 20.8776C0.886117 18.7031 0.0643057 16.0904 0.0656755 13.4102C0.0656755 6.35569 5.63857 0.641846 12.5191 0.641846Z" fill="white"/>
</svg>
