<svg width="26" height="24" viewBox="0 0 26 24" fill="none" xmlns="http://www.w3.org/2000/svg">
<path d="M23.9831 0.472046H2.81234C2.31692 0.472046 1.84178 0.65494 1.49147 0.980504C1.14114 1.30606 0.944336 1.74761 0.944336 2.20801V21.8823C0.944336 22.3427 1.14114 22.7842 1.49147 23.1098C1.84178 23.4354 2.31692 23.6183 2.81234 23.6183H23.9831C24.4785 23.6183 24.9536 23.4354 25.304 23.1098C25.6543 22.7842 25.8511 22.3427 25.8511 21.8823V2.20801C25.8511 1.74761 25.6543 1.30606 25.304 0.980504C24.9536 0.65494 24.4785 0.472046 23.9831 0.472046ZM8.41637 20.1463H4.68035V9.73054H8.41637V20.1463ZM6.54836 7.70524C6.12019 7.69388 5.70513 7.56549 5.35502 7.33615C5.00492 7.10681 4.73529 6.78667 4.57985 6.41574C4.42441 6.04481 4.39004 5.63953 4.48103 5.25055C4.57201 4.86158 4.78434 4.50613 5.09145 4.22865C5.39858 3.95117 5.78688 3.76394 6.20784 3.69038C6.62881 3.6168 7.06376 3.66014 7.45837 3.81499C7.85298 3.96983 8.18974 4.22931 8.42657 4.561C8.6634 4.89269 8.78979 5.28188 8.78997 5.67995C8.78013 6.22428 8.53883 6.74287 8.1188 7.12238C7.69876 7.50188 7.13415 7.71144 6.54836 7.70524ZM22.1151 20.1463H18.3791V14.6607C18.3791 13.0173 17.6319 12.4271 16.6605 12.4271C16.3757 12.4447 16.0975 12.5144 15.8418 12.6323C15.5861 12.7501 15.3579 12.9138 15.1704 13.1137C14.983 13.3138 14.8398 13.5463 14.7493 13.7978C14.6588 14.0494 14.6227 14.315 14.6431 14.5797C14.6368 14.6336 14.6368 14.6878 14.6431 14.7417V20.1463H10.907V9.73054H14.5185V11.235C14.8829 10.72 15.3833 10.3006 15.9721 10.0169C16.5609 9.73324 17.2181 9.59475 17.8809 9.61481C19.8112 9.61481 22.0653 10.6101 22.0653 13.8506L22.1151 20.1463Z" fill="white"/>
</svg>
